<svg width="80" height="78" viewBox="0 0 80 78" fill="none" xmlns="http://www.w3.org/2000/svg">
<g clip-path="url(#clip0_215_5588)">
<path d="M40 0C43.6719 0 47.2135 0.457031 50.625 1.37109C54.0365 2.28516 57.2135 3.60547 60.1562 5.33203C63.099 7.05859 65.7943 9.08984 68.2422 11.4258C70.6901 13.7617 72.7865 16.3896 74.5312 19.3096C76.276 22.2295 77.6172 25.3398 78.5547 28.6406C79.4922 31.9414 79.974 35.3945 80 39C80 42.5801 79.5312 46.0332 78.5938 49.3594C77.6562 52.6855 76.3021 55.7832 74.5312 58.6523C72.7604 61.5215 70.6771 64.1494 68.2812 66.5361C65.8854 68.9229 63.1901 70.9668 60.1953 72.668C57.2005 74.3691 54.0104 75.6768 50.625 76.5908C47.2396 77.5049 43.6979 77.9746 40 78C36.3281 78 32.7865 77.543 29.375 76.6289C25.9635 75.7148 22.7865 74.3945 19.8438 72.668C16.901 70.9414 14.2057 68.9102 11.7578 66.5742C9.3099 64.2383 7.21354 61.6104 5.46875 58.6904C3.72396 55.7705 2.38281 52.6602 1.44531 49.3594C0.507812 46.0586 0.0260417 42.6055 0 39C0 35.4199 0.46875 31.9668 1.40625 28.6406C2.34375 25.3145 3.69792 22.2168 5.46875 19.3477C7.23958 16.4785 9.32292 13.8506 11.7188 11.4639C14.1146 9.07715 16.8099 7.0332 19.8047 5.33203C22.7995 3.63086 25.9896 2.32324 29.375 1.40918C32.7604 0.495117 36.3021 0.0253906 40 0ZM63.5547 26.0889L58.2422 20.9092L32.5 46.0078L21.7578 35.5342L16.4453 40.7139L32.5 56.3672L63.5547 26.0889Z" fill="#39B337"/>
</g>
<defs>
<clipPath id="clip0_215_5588">
<rect width="80" height="78" fill="white"/>
</clipPath>
</defs>
</svg>
