<svg width="25" height="24" viewBox="0 0 25 24" fill="none" xmlns="http://www.w3.org/2000/svg">
<path d="M24.2666 9.6498H23.3V9.6H12.5V14.4H19.2818C18.2924 17.1942 15.6338 19.2 12.5 19.2C8.5238 19.2 5.3 15.9762 5.3 12C5.3 8.0238 8.5238 4.8 12.5 4.8C14.3354 4.8 16.0052 5.4924 17.2766 6.6234L20.6708 3.2292C18.5276 1.2318 15.6608 0 12.5 0C5.873 0 0.5 5.373 0.5 12C0.5 18.627 5.873 24 12.5 24C19.127 24 24.5 18.627 24.5 12C24.5 11.1954 24.4172 10.41 24.2666 9.6498Z" fill="#FFC107"/>
<path d="M1.88367 6.4146L5.82627 9.306C6.89307 6.6648 9.47667 4.8 12.5001 4.8C14.3355 4.8 16.0053 5.4924 17.2767 6.6234L20.6709 3.2292C18.5277 1.2318 15.6609 0 12.5001 0C7.89087 0 3.89367 2.6022 1.88367 6.4146Z" fill="#FF3D00"/>
<path d="M12.5 24.0002C15.5996 24.0002 18.416 22.814 20.5454 20.885L16.8314 17.7422C15.6266 18.6548 14.129 19.2002 12.5 19.2002C9.37876 19.2002 6.72856 17.21 5.73016 14.4326L1.81696 17.4476C3.80296 21.3338 7.83616 24.0002 12.5 24.0002Z" fill="#4CAF50"/>
<path d="M24.2666 9.6499H23.3V9.6001H12.5V14.4001H19.2818C18.8066 15.7423 17.9432 16.8997 16.8296 17.7427L16.8314 17.7415L20.5454 20.8843C20.2826 21.1231 24.5 18.0001 24.5 12.0001C24.5 11.1955 24.4172 10.4101 24.2666 9.6499Z" fill="#1976D2"/>
</svg>
