<svg width="552" height="533" viewBox="0 0 552 533" fill="none" xmlns="http://www.w3.org/2000/svg">
<g clip-path="url(#clip0_4_11117)">
<path d="M524.882 126.544C525.151 126.143 531.83 132.976 537.906 131.57C545.474 129.818 551.01 115.533 546.906 109.423C544.19 105.379 537.435 105.189 537.576 104.43C537.726 103.619 544.995 106.339 548.95 103.09C553.754 99.1431 552.75 87.1389 546.873 80.8426C545.697 79.5828 543.743 77.4903 540.938 77.3246C535.428 76.999 531.102 84.3707 529.201 87.6109C523.156 97.9123 522.661 108.72 521.915 108.619C521.226 108.525 523.056 99.4809 519.739 97.6291C519.012 97.2234 518.149 97.2291 517.291 97.4306C517.508 96.8599 517.664 96.2724 517.743 95.6684C518.241 91.8594 515.263 87.8102 511.744 84.4157C515.409 86.6219 519.551 88.1517 523.216 87.0574C531.403 84.613 536.85 69.1867 532.546 59.717C529.54 53.1031 521.875 49.6085 522.127 49.2299C522.396 48.8285 529.075 55.6618 535.151 54.2556C542.719 52.5039 548.255 38.2186 544.151 32.1085C541.435 28.0648 534.68 27.8747 534.821 27.1163C534.971 26.3048 542.241 29.0251 546.195 25.7759C550.999 21.8289 549.995 9.82477 544.118 3.52844C542.942 2.26862 540.988 0.176133 538.183 0.0104409C532.673 -0.3151 528.348 7.05657 526.446 10.2967C520.401 20.5981 519.906 31.4058 519.16 31.3046C518.471 31.211 520.301 22.1667 516.984 20.3149C514.907 19.1553 511.712 21.3184 510.72 21.9902C499.808 29.3778 502.832 45.4418 492.752 62.5319C489.506 68.0346 486.272 71.3204 483.544 73.8059C482.297 58.5043 486.888 46.7581 479.934 37.8608C479.192 36.912 476.804 33.8571 474.477 34.3132C470.761 35.0415 469.773 44.2204 469.088 44.0945C468.348 43.9583 471.139 33.5173 468.496 21.828C467.664 18.1513 465.772 9.78648 460.43 8.37851C457.71 7.66162 455.219 9.04422 453.719 9.8766C446.224 14.0368 441.645 25.1491 445.026 30.4036C447.809 34.729 455.549 34.4064 455.447 35.2256C455.352 35.9913 448.866 34.0662 445.06 37.0681C439.309 41.604 440.266 56.9265 446.94 60.9533C452.298 64.1858 460.719 59.7645 460.853 60.2302C460.979 60.6695 452.628 61.6056 447.771 66.9634C445.754 69.1875 444.371 72.1452 443.589 75.3409C436.974 75.8462 431.312 80.6633 431.1 80.2921C430.86 79.8725 439.816 76.7194 441.204 70.5464C442.933 62.8565 432.668 51.5916 425.47 52.6998C420.707 53.4332 417.609 59.5363 416.997 59.0787C416.343 58.5891 421.908 53.1121 420.742 48.0817C419.326 41.9708 408.247 37.684 400.115 40.3356C398.488 40.8661 395.785 41.7473 394.422 44.2442C391.744 49.1485 396.404 56.3067 398.452 59.4529C404.964 69.4559 414.332 74.5966 413.919 75.2356C413.537 75.8263 406.312 70.2278 403.231 72.4622C401.302 73.8613 401.835 77.725 402 78.925C403.818 92.1207 419.373 96.3184 430.154 112.961C438.934 126.512 435.188 133.868 442.626 137.541C445.819 139.118 449.885 139.423 454.041 138.663C450.825 160.549 449.915 197.979 449.915 197.979C449.008 235.419 444.272 266.252 442.198 266.193C441.047 266.157 441.471 256.726 437.984 241.561C435.536 230.928 434.381 231.418 428.026 212.446C417.941 182.351 412.899 167.309 412.888 167.226C412.835 166.572 412.747 165.252 412.378 163.916C419.843 161.793 427.091 156.356 429.609 148.725C431.623 142.62 431.094 133.552 426.194 130.285C423.033 128.177 418.151 129.148 413.616 130.898C417.161 128.499 420.314 125.369 420.933 121.539C422.316 112.982 411 101.304 400.737 101.138C393.569 101.022 387.147 106.526 386.921 106.13C386.681 105.711 395.637 102.558 397.024 96.3847C398.753 88.6948 388.488 77.4299 381.291 78.5381C376.528 79.2715 373.43 85.3746 372.818 84.9171C372.164 84.4274 377.728 78.9504 376.563 73.92C375.146 67.8091 364.067 63.5224 355.936 66.1739C354.309 66.7044 351.606 67.5856 350.243 70.0826C347.564 74.9868 352.225 82.1449 354.273 85.2912C360.785 95.2942 370.153 100.435 369.74 101.074C369.358 101.665 362.133 96.0661 359.052 98.3005C357.123 99.6996 357.655 103.563 357.821 104.763C359.639 117.959 375.194 122.157 385.975 138.799C394.754 152.351 391.008 159.706 398.447 163.379C399.734 164.015 401.165 164.438 402.685 164.675L402.685 164.682C403.339 175.03 421.682 202.837 431.891 242.373C436.976 262.071 439.759 272.816 437.756 287.78C435.777 302.615 430.284 312.627 430.384 319.238C430.391 319.856 430.444 320.426 430.557 320.978L460.706 316.957C460.909 316.363 461.067 315.754 461.193 315.128C463.489 303.873 455.113 286.767 459.369 259.178C462.53 238.706 471.191 221.868 475.229 214.023C480.191 204.375 486.054 195.3 492.384 181.209C496.448 183.483 501.056 184.691 505.629 184.106C511.915 183.303 519.726 178.886 520.498 172.983C520.996 169.174 518.018 165.124 514.499 161.73C518.164 163.936 522.306 165.466 525.971 164.372C534.158 161.927 539.605 146.501 535.301 137.031C532.295 130.417 524.63 126.923 524.882 126.544ZM402.223 136.632C402.201 136.587 402.515 136.448 403.064 136.222C402.547 136.517 402.245 136.676 402.223 136.632ZM502.448 77.0625C501.962 76.7172 501.69 76.5095 501.72 76.47C501.749 76.4305 502.009 76.6584 502.448 77.0625ZM471.181 92.8564C471.721 92.6084 472.037 92.4725 472.053 92.5194C472.07 92.5663 471.748 92.6791 471.181 92.8564ZM446.402 110.793C446.38 110.749 446.695 110.61 447.243 110.384C446.727 110.678 446.424 110.838 446.402 110.793ZM455.075 189.942C454.352 189.777 463.156 153.585 464.6 134.37C468.779 131.586 472.211 127.666 473.788 122.887C473.816 122.804 473.841 122.718 473.867 122.634C474.703 122.516 475.534 122.356 476.357 122.159C473.411 129.73 471.767 135.228 471.767 135.228C464.116 160.845 455.736 190.096 455.075 189.942ZM487.937 178.127C485.52 181.892 482.689 186.522 478.79 193.603C468.789 211.743 463.793 220.808 462.479 227.271C462.134 228.996 460.313 238.33 456.139 250.161C454.005 256.199 452.939 259.217 452.128 259.094C449.83 258.74 449.791 234.926 456.151 210.269C457.241 206.072 458.11 203.363 459.762 198.24C462.443 189.883 477.382 143.434 489.134 115.255L489.135 115.251C491.306 113.137 492.929 110.719 493.726 108.173C493.981 107.361 494.124 106.609 494.181 105.893C496.991 106.801 499.94 107.167 502.874 106.792C504.515 106.583 506.259 106.125 507.956 105.46C503.263 113.912 503.338 126.568 495.507 139.846C487.298 153.763 479.152 153.522 479.121 161.926C479.1 167.508 482.675 173.681 487.94 178.121L487.937 178.127ZM504.474 153.784C504.504 153.745 504.764 153.973 505.203 154.377C504.717 154.031 504.445 153.824 504.474 153.784Z" fill="#F2F2F2"/>
<path d="M189.189 117.594C193.792 116.815 198.802 122.528 200.894 124.915C206.48 131.285 207.646 138.697 208.097 141.842C215.215 191.486 218.773 216.308 204.045 227.854C190.048 238.826 164.463 235.883 159.476 226.024C157.534 222.183 159.158 218.165 161.727 210.468C166.476 196.244 169.275 181.419 173.432 167.005C182.925 134.093 182.128 118.79 189.189 117.594Z" fill="#2F2E41"/>
<path d="M63.585 302.884L41.1841 345.851C35.4658 356.819 8.40718 525.777 20.4403 527.906L72.5631 529.664L94.1896 530.817L116.419 531.142L171.519 533L140.568 312.949L63.585 302.884Z" fill="#2F2E41"/>
<path d="M118.734 176.841L163.303 178.671L166.904 193.769L177.637 202.667C181.584 205.939 183.519 211.097 182.719 216.208L177.709 248.212C177.709 248.212 187.163 271.088 163.303 285.728L139.443 325.073L56.6071 316.381C56.6071 316.381 48.9538 315.466 54.3562 309.976C59.7585 304.486 66.5113 277.493 66.5113 277.493C66.5113 277.493 65.611 265.598 68.7623 262.395C71.9137 259.192 69.7194 250.957 69.7194 250.957L82.5376 202.806C85.0354 193.423 93.4126 186.906 102.977 186.906H117.192L118.734 176.841Z" fill="#3358FF"/>
<path d="M461.59 484.727L72.3527 379.009C64.0367 376.75 58.2419 369.951 57.2294 361.264C56.2169 352.577 60.2885 344.59 67.8549 340.42L226.039 253.237C230.036 251.033 234.711 250.232 239.198 250.986L500.655 294.788C506.236 295.723 511.073 298.849 514.274 303.588C517.476 308.328 518.607 314.038 517.459 319.668L487.056 468.765C485.895 474.456 482.575 479.271 477.707 482.322C474.407 484.391 470.714 485.449 466.956 485.449C465.17 485.449 463.369 485.21 461.59 484.727Z" fill="white"/>
<path d="M461.59 484.727L72.3527 379.009C64.0367 376.75 58.2419 369.951 57.2294 361.264C56.2169 352.577 60.2885 344.59 67.8549 340.42L226.039 253.237C230.036 251.033 234.711 250.232 239.198 250.986L500.655 294.788C506.236 295.723 511.073 298.849 514.274 303.588C517.476 308.328 518.607 314.038 517.459 319.668L487.056 468.765C485.895 474.456 482.575 479.271 477.707 482.322C474.407 484.391 470.714 485.449 466.956 485.449C465.17 485.449 463.369 485.21 461.59 484.727ZM500.305 296.942L238.848 253.139C234.829 252.465 230.644 253.182 227.063 255.155L68.8793 342.338C62.1023 346.073 58.4555 353.227 59.3624 361.007C60.2693 368.787 65.4593 374.877 72.9072 376.9L462.144 482.618C467.093 483.961 472.22 483.197 476.58 480.464C480.939 477.732 483.913 473.419 484.952 468.322L515.355 319.224C516.383 314.183 515.371 309.069 512.503 304.823C509.636 300.578 505.304 297.779 500.305 296.942Z" fill="#CCCCCC"/>
<path d="M443.757 337.987L409.045 427.002C405.679 435.631 396.232 440.047 387.594 437.027L132.454 347.814C118.366 342.888 116.792 323.279 129.908 316.098L212.017 271.144C215.589 269.188 219.73 268.588 223.698 269.45L431.442 314.603C441.78 316.85 447.652 327.999 443.757 337.987Z" fill="#F2F2F2"/>
<path d="M376.919 352.753C384.876 352.753 391.325 349.475 391.325 345.432C391.325 341.39 384.876 338.112 376.919 338.112C368.963 338.112 362.513 341.39 362.513 345.432C362.513 349.475 368.963 352.753 376.919 352.753Z" fill="#FF6884"/>
<path d="M363.413 375.17C371.37 375.17 377.82 371.893 377.82 367.85C377.82 363.808 371.37 360.53 363.413 360.53C355.457 360.53 349.007 363.808 349.007 367.85C349.007 371.893 355.457 375.17 363.413 375.17Z" fill="#3F3D56"/>
<path d="M285.98 357.556C307.611 357.556 325.147 348.646 325.147 337.655C325.147 326.664 307.611 317.753 285.98 317.753C264.349 317.753 246.813 326.664 246.813 337.655C246.813 348.646 264.349 357.556 285.98 357.556Z" fill="#3358FF"/>
<path d="M218.001 336.74C218.557 336.74 219.078 336.389 219.274 335.826C219.523 335.111 219.155 334.327 218.452 334.073L189.872 323.78C189.171 323.527 188.397 323.9 188.148 324.615C187.899 325.329 188.267 326.114 188.97 326.367L217.55 336.661C217.699 336.715 217.851 336.74 218.001 336.74Z" fill="#3F3D56"/>
<path d="M224.304 331.708C224.86 331.708 225.381 331.356 225.577 330.793C225.826 330.079 225.458 329.294 224.755 329.041L196.175 318.747C195.474 318.494 194.7 318.868 194.45 319.582C194.202 320.297 194.57 321.081 195.273 321.335L223.853 331.629C224.002 331.682 224.154 331.708 224.304 331.708Z" fill="#3F3D56"/>
<path d="M230.607 326.675C231.162 326.675 231.683 326.324 231.88 325.761C232.129 325.046 231.761 324.262 231.058 324.008L202.477 313.714C201.776 313.462 201.002 313.835 200.753 314.55C200.504 315.264 200.872 316.049 201.575 316.302L230.156 326.596C230.305 326.65 230.457 326.675 230.607 326.675Z" fill="#3F3D56"/>
<path d="M236.909 321.643C237.465 321.643 237.986 321.291 238.183 320.728C238.431 320.014 238.063 319.229 237.36 318.976L208.78 308.682C208.079 308.43 207.305 308.803 207.056 309.517C206.807 310.232 207.175 311.016 207.878 311.27L236.458 321.564C236.607 321.617 236.759 321.643 236.909 321.643Z" fill="#3F3D56"/>
<path d="M243.212 316.61C243.768 316.61 244.289 316.258 244.485 315.695C244.734 314.981 244.366 314.196 243.663 313.943L215.083 303.649C214.382 303.397 213.608 303.77 213.359 304.485C213.11 305.199 213.478 305.984 214.181 306.237L242.761 316.531C242.91 316.584 243.062 316.61 243.212 316.61Z" fill="#3F3D56"/>
<path d="M249.515 311.578C250.07 311.578 250.591 311.226 250.788 310.663C251.037 309.949 250.669 309.164 249.966 308.911L221.386 298.617C220.684 298.365 219.911 298.737 219.661 299.452C219.412 300.167 219.78 300.951 220.483 301.205L249.064 311.499C249.213 311.552 249.365 311.578 249.515 311.578Z" fill="#3F3D56"/>
<path d="M255.817 306.545C256.373 306.545 256.894 306.193 257.09 305.63C257.339 304.916 256.971 304.132 256.268 303.878L227.688 293.584C226.986 293.332 226.214 293.705 225.964 294.42C225.715 295.134 226.083 295.919 226.786 296.172L255.366 306.466C255.515 306.52 255.667 306.545 255.817 306.545Z" fill="#3F3D56"/>
<path d="M159.476 191.71C179.864 191.71 196.392 174.914 196.392 154.195C196.392 133.475 179.864 116.679 159.476 116.679C139.088 116.679 122.56 133.475 122.56 154.195C122.56 174.914 139.088 191.71 159.476 191.71Z" fill="#A0616A"/>
<path d="M167.129 98.3791C156.736 96.6573 151.154 95.7327 145.52 97.0066C134.233 99.5584 127.687 109.813 123.011 117.137C111.828 134.651 116.884 142.012 105.903 166.548C98.026 184.148 94.0546 183.421 93.2978 192.625C91.7091 211.947 107.883 231.275 125.261 238.834C126.422 239.338 144.483 247.019 149.572 240.664C153.303 236.005 146.712 227.986 138.767 206.351C124.797 168.309 131.398 155.595 133.365 152.365C134.607 150.324 138.152 145.253 140.118 145.96C141.897 146.6 140.357 151.241 141.919 155.11C146.103 165.474 171.535 167.775 191.44 159.685C197.31 157.299 200.912 155.835 203.595 151.907C212.7 138.58 201.83 110.651 184.687 102.497C180.787 100.642 176.234 99.8874 167.129 98.3791Z" fill="#2F2E41"/>
<path d="M140.735 321.897C149.713 326.525 154.641 334.984 151.742 340.79C148.843 346.597 139.216 347.55 130.235 342.92C126.623 341.12 123.487 338.467 121.09 335.183L83.292 315.086L92.9503 297.261L129.187 318.966C133.212 318.992 137.171 319.997 140.735 321.897Z" fill="#A0616A"/>
<path d="M317.515 296.038C326.972 299.544 332.859 307.345 330.663 313.461C328.466 319.578 319.02 321.693 309.559 318.185C305.761 316.836 302.336 314.583 299.571 311.613L259.682 296.245L267.177 277.376L305.705 294.529C309.703 294.067 313.753 294.584 317.515 296.038Z" fill="#A0616A"/>
<path d="M97.7997 196.285C97.7997 196.285 90.1465 180.273 72.5889 192.625C55.0314 204.978 13.1635 256.219 13.1635 256.219C13.1635 256.219 -8.44573 275.434 3.70947 282.297C15.8647 289.159 103.202 328.962 103.202 328.962L125.261 313.407L46.928 272.689L91.9242 238.376L97.7997 196.285Z" fill="#3358FF"/>
<path d="M174.332 205.893C174.332 205.893 179.689 198.116 189.166 205.893C198.643 213.671 225.919 258.455 225.919 258.455L293.183 286.414L283.279 307.002L202.695 277.722L167.58 229.226L174.332 205.893Z" fill="#3358FF"/>
<path d="M170.056 191.939C159.846 197.237 164.544 205.371 164.203 207.037C160.885 223.256 173.014 240.055 177.709 239.062C180.463 238.48 181.911 231.508 181.31 226.252C180.532 219.438 186.981 208.652 186.263 203.834C184.501 192.015 195.131 191.794 193.015 187.364C191.775 184.768 176.14 188.782 170.056 191.939Z" fill="#2F2E41"/>
<path d="M288.4 358.609C288.443 358.609 288.485 358.607 288.528 358.601C289.117 358.531 289.538 357.988 289.469 357.389L287.047 336.612C287.014 336.324 286.869 336.062 286.645 335.883C286.42 335.704 286.137 335.623 285.852 335.657L247.396 340.357C246.807 340.428 246.387 340.972 246.458 341.57C246.529 342.169 247.064 342.599 247.652 342.524L285.04 337.955L287.335 357.646C287.4 358.201 287.864 358.609 288.4 358.609Z" fill="white"/>
<path d="M90.3728 378.676C101.445 378.676 110.421 369.555 110.421 358.302C110.421 347.05 101.445 337.928 90.3728 337.928C79.3004 337.928 70.3245 347.05 70.3245 358.302C70.3245 369.555 79.3004 378.676 90.3728 378.676Z" fill="#3358FF"/>
<path d="M81.264 355.124L87.7078 366.641C88.0912 367.326 89.1922 367.376 89.5626 366.641C92.0792 361.646 95.6337 357.225 100.015 353.798C100.478 353.436 100.713 352.864 100.4 352.305C100.141 351.842 99.3898 351.554 98.9309 351.913C94.2512 355.573 90.4026 360.191 87.7078 365.539H89.5626L83.1188 354.022C82.4355 352.801 80.579 353.9 81.264 355.124Z" fill="white"/>
</g>
<defs>
<clipPath id="clip0_4_11117">
<rect width="552" height="533" fill="white"/>
</clipPath>
</defs>
</svg>
