<svg width="296" height="291" viewBox="0 0 296 291" fill="none" xmlns="http://www.w3.org/2000/svg">
<path d="M140.287 0.294006C109.35 1.86902 79.8624 12.8503 54.5938 32.1878C49.3204 36.2565 36.4005 49.0315 32.0938 54.5003C16.4493 74.319 6.60556 96.2378 2.51864 120.3C-3.67765 156.832 4.49618 195.113 24.8868 225.125C46.7716 257.282 81.5323 280.075 120.248 287.688C131.982 289.963 137.782 290.444 150.834 290.182C162.963 289.919 167.797 289.438 177.86 287.425C196.01 283.794 210.907 277.975 226.42 268.525C237.143 261.963 245.097 255.532 254.765 245.644C265.795 234.313 273.441 223.507 280.473 209.157C286.23 197.519 289.613 187.632 292.338 174.594C294.755 163.044 295.15 158.669 295.15 144.844C295.15 131.194 294.579 125.025 292.118 113.825C283.022 72.2628 256.479 37.3503 218.73 17.269C195.395 4.88776 167.797 -1.10599 140.287 0.294006ZM168.5 19.544C188.275 22.3878 208.534 30.7003 225.321 42.819C235.605 50.2565 252.743 67.2315 251.689 68.894C251.557 69.1565 248.832 71.519 245.668 74.144L239.911 78.9128L236.747 75.1503C232.704 70.3378 224.223 62.069 219.389 58.219C207.172 48.419 191.527 40.7628 176.322 37.044C170.961 35.7315 163.578 34.5065 159.623 34.2878L157.646 34.1565L157.514 26.1065L157.426 18.1003L160.15 18.4065C161.689 18.5815 165.424 19.0628 168.5 19.544ZM134.574 26.6753V34.6815L131.674 34.9878C130.048 35.1628 126.225 35.7753 123.192 36.3878C93.7491 42.3378 66.5909 61.3253 50.463 87.3128C45.9366 94.5315 40.6192 106.213 38.5538 113.257C37.9825 115.269 37.6749 115.75 37.1036 115.575C36.4005 115.357 22.4698 112.25 22.2061 112.25C21.9425 112.25 22.6456 109.8 24.4913 104.375C36.6642 68.6753 65.2286 39.5815 100.956 26.4128C110.976 22.7378 126.708 19.019 133.608 18.669L134.574 18.6253V26.6753ZM164.018 51.8753C178.212 54.5003 190.692 59.5315 202.47 67.4065C209.018 71.7815 210.6 73.0065 210.6 73.619C210.6 73.8378 208.49 76.5503 205.941 79.6565C197.987 89.4128 197.812 89.6753 197.592 91.9065C196.977 98.0315 192.318 102.669 186.65 102.713C181.859 102.757 178.256 100.744 176.059 96.8503C174.433 93.8315 174.257 89.4128 175.751 86.6565C176.85 84.5565 180.19 81.3628 182.167 80.5315L183.529 79.9628L181.991 79.044C178.08 76.6378 167.226 73.1815 159.843 71.9565C154.657 71.0815 142.001 71.2128 136.552 72.1753C103.417 78.0378 77.797 102.363 72.172 133.25C71.1173 138.982 70.8975 149.788 71.7325 154.863C73.1388 163.613 75.5118 171.138 79.0274 177.832C80.3458 180.369 81.4005 182.425 81.4005 182.469C81.4005 182.732 66.4591 195.375 66.1515 195.375C65.9757 195.375 64.877 193.757 63.7345 191.744C49.1886 166.413 46.7276 138.063 56.835 112.25C62.9434 96.5003 73.4903 82.369 87.1134 71.4753C100.297 61.019 119.457 53.1878 137.431 51.044C143.407 50.344 158.173 50.7815 164.018 51.8753ZM266.103 91.994C271.947 104.069 274.936 114.35 276.737 128.219C277.353 133.075 277.748 145.282 277.265 145.763C277.089 145.982 262.367 145.063 262.104 144.844C262.016 144.757 261.752 141.563 261.576 137.757C260.785 123.932 257.753 111.769 251.601 98.0753C250.546 95.7128 249.799 93.6128 250.019 93.4378C251.205 92.3003 261.752 85.1253 262.191 85.1253C262.499 85.1253 264.257 88.2315 266.103 91.994ZM229.584 93.6565C233.759 100.044 237.758 107.963 240.263 114.875C242.9 122.182 245.316 134.125 245.316 139.813V142H235.473H225.629L225.321 139.682C224.574 133.557 223.608 129.269 221.85 123.975C219.696 117.413 217.719 113.257 214.291 107.963C212.973 105.994 211.918 104.2 211.918 103.982C211.918 103.632 217.763 98.119 224.399 92.2128C225.805 90.944 227.123 90.0253 227.299 90.244C227.475 90.419 228.485 91.9503 229.584 93.6565ZM155.229 109.363C169.818 112.469 181.288 123.713 184.276 137.844C185.243 142.525 185.331 149.307 184.496 153.375C181.596 167.025 171.357 178.094 157.997 181.9C152.987 183.344 143.363 183.344 138.222 181.857C124.071 177.875 114.184 166.982 111.283 152.15C110.536 148.344 110.976 140.032 112.118 136.094C116.161 122.313 127.06 112.294 141.166 109.407C144.945 108.663 151.669 108.619 155.229 109.363ZM96.9571 115.313C98.4952 116.319 99.2862 117.238 100.077 118.944C101.44 121.788 101.44 123.757 100.209 126.25C98.0997 130.363 93.3097 132.025 88.9591 130.188C83.5098 127.869 81.9718 121.263 85.795 116.888C87.5968 114.875 89.5304 114 92.4308 114C94.3643 114 95.2433 114.263 96.9571 115.313ZM210.248 121.7C212.885 123.538 214.247 126.25 214.027 129.4C213.324 139.157 199.525 140.075 196.933 130.494C196.361 128.307 197.021 125.332 198.515 123.363C201.151 119.907 206.601 119.163 210.248 121.7ZM27.128 135.438C29.8087 135.7 32.3575 136.007 32.8409 136.094C33.6759 136.269 33.7198 136.619 33.7198 145.719V155.213L32.5333 155.825C30.5997 156.832 19.3936 160.944 19.1739 160.682C18.339 159.85 17.7237 140.338 18.3829 136.225C18.6466 134.607 18.6905 134.607 20.4923 134.782C21.4591 134.913 24.4913 135.219 27.128 135.438ZM95.3751 155.519C98.671 157.225 100.297 159.763 100.297 163.219C100.297 167.463 97.6163 170.657 93.3536 171.444C88.6515 172.363 83.2022 167.857 83.1583 163.088C83.1583 160.113 85.4874 156.525 88.212 155.3C90.1456 154.469 93.4854 154.557 95.3751 155.519ZM207.216 157.138C209.721 157.969 212.621 161.075 213.061 163.307C213.852 167.463 212.006 171.444 208.534 173.107C205.634 174.507 201.591 174.157 199.306 172.363C196.933 170.438 195.658 168.075 195.658 165.407C195.658 163.132 196.845 160.288 198.251 159.15C200.009 157.75 201.064 157.182 202.382 156.875C204.535 156.35 205.019 156.394 207.216 157.138ZM232.792 163.919C236.923 164.663 240.922 165.363 241.713 165.494C242.46 165.625 243.119 165.975 243.119 166.282C243.119 167.594 239.955 177.525 238.285 181.594C228.134 205.875 209.853 223.944 185.551 233.569C168.105 240.525 147.45 242.013 128.422 237.813C124.335 236.894 117.48 234.969 117.172 234.619C116.82 234.313 125.741 216.813 126.181 216.813C126.444 216.813 128.598 217.294 131.015 217.863C144.594 221.144 159.755 220.4 173.378 215.763C191.396 209.638 206.337 197.519 215.609 181.55C217.983 177.438 221.542 169.257 222.685 165.144C223.388 162.694 223.651 162.3 224.399 162.432C224.926 162.475 228.705 163.175 232.792 163.919ZM268.124 167.375C271.859 168.338 274.936 169.169 275.024 169.257C275.287 169.475 273.002 177.613 272.563 178.05C272.255 178.357 259.994 174.638 259.335 173.982C259.115 173.763 259.95 169.913 261.093 165.713C261.137 165.582 260.829 165.494 268.124 167.375ZM37.6309 173.588C40.0919 181.507 42.0255 186.582 45.2774 193.319C46.8595 196.6 48.046 199.4 47.9581 199.488C46.6397 200.625 35.961 208.5 35.7413 208.5C35.3018 208.5 32.0499 202.463 29.0616 196.075C26.3809 190.388 23.085 181.288 21.9425 176.3L21.3272 173.632L23.129 172.932C24.0958 172.582 27.2159 171.357 29.9845 170.263C32.753 169.213 35.2579 168.294 35.5216 168.294C35.7413 168.25 36.7081 170.657 37.6309 173.588ZM261.357 184.919C267.553 187.457 269.486 188.419 269.486 188.9C269.486 190.169 264.74 200.625 264.213 200.625C263.993 200.625 262.675 199.969 261.269 199.138C259.862 198.35 257.182 196.819 255.336 195.813C253.446 194.763 251.908 193.713 251.908 193.45C251.908 192.707 256.435 183.125 256.786 183.125C256.962 183.125 259.027 183.913 261.357 184.919ZM112.602 187.938C115.282 189.25 116.469 190.388 117.699 192.838C119.106 195.594 119.15 199.925 117.831 202.682C116.601 205.263 113.481 207.888 110.888 208.544L108.778 209.069L103.373 217.294C100.429 221.844 97.88 225.563 97.7921 225.563C97.5284 225.563 87.6407 218.169 84.3888 215.544C83.0265 214.45 81.8839 213.313 81.8839 213.007C81.8399 212.438 84.9161 208.675 91.2442 201.588C95.3751 196.863 95.5948 196.6 97.3087 192.969C98.4513 190.65 101.483 187.982 103.988 187.15C106.098 186.407 110.36 186.8 112.602 187.938ZM248.744 212.175C251.601 214.188 254.193 216.157 254.501 216.55C255.204 217.382 254.545 218.475 250.107 223.988C248.568 225.869 247.118 227.663 246.899 227.969C246.459 228.582 243.383 226.219 238.197 221.319L235.692 218.957L238.197 215.763C239.604 214.013 241.317 211.694 242.065 210.557C242.768 209.463 243.383 208.544 243.427 208.5C243.515 208.5 245.888 210.163 248.744 212.175ZM64.6134 220.357C71.4688 227.444 76.8741 231.994 84.0372 236.719C99.7696 247.132 116.776 253.65 134.75 256.188C138.266 256.669 141.386 257.063 141.606 257.063C142.133 257.063 142.177 272.244 141.693 272.507C141.518 272.594 139.013 272.419 136.112 272.069C104.076 268.482 75.4679 254.307 52.5284 230.682C49.8038 227.882 47.5626 225.388 47.5626 225.213C47.5626 224.994 49.8917 222.675 52.7481 220.094C55.5606 217.469 57.9776 215.194 58.0216 214.975C58.3731 214.144 59.296 214.932 64.6134 220.357ZM229.496 235.625C231.869 238.382 233.715 240.832 233.583 241.094C233.363 241.619 222.904 249.8 222.729 249.582C221.191 247.788 214.994 238.425 215.126 238.075C215.346 237.419 224.355 230.419 224.838 230.55C225.014 230.594 227.123 232.869 229.496 235.625ZM205.985 249.975C207.348 252.469 208.754 255.138 209.062 255.925L209.677 257.413L207.172 258.725C203.129 260.869 197.284 263.232 196.977 262.882C196.581 262.4 194.955 258.55 193.241 253.913L191.791 250.063L194.516 248.882C195.966 248.225 198.471 247.044 200.053 246.3C201.635 245.557 203.041 245.032 203.217 245.207C203.349 245.338 204.623 247.482 205.985 249.975ZM180.233 255.4C181.684 259.994 183.354 266.032 183.354 266.775C183.354 267.213 182.914 267.738 182.299 268C180.409 268.7 170.39 270.582 170.126 270.275C169.862 269.969 167.973 258.244 167.973 256.844C167.973 256.407 168.412 256.188 169.203 256.144C169.862 256.144 172.279 255.663 174.565 255.094C180.014 253.825 179.706 253.782 180.233 255.4Z" fill="#3358FF"/>
</svg>
