<svg width="28" height="26" viewBox="0 0 28 26" fill="none" xmlns="http://www.w3.org/2000/svg">
<path d="M14 8C15.0609 8 16.0783 7.57857 16.8284 6.82843C17.5786 6.07828 18 5.06087 18 4C18 2.93913 17.5786 1.92172 16.8284 1.17157C16.0783 0.421427 15.0609 0 14 0C12.9391 0 11.9217 0.421427 11.1716 1.17157C10.4214 1.92172 10 2.93913 10 4C10 5.06087 10.4214 6.07828 11.1716 6.82843C11.9217 7.57857 12.9391 8 14 8ZM8 4.5C8 4.95963 7.90947 5.41475 7.73358 5.83939C7.55769 6.26403 7.29988 6.64987 6.97487 6.97487C6.64987 7.29988 6.26403 7.55769 5.83939 7.73358C5.41475 7.90947 4.95963 8 4.5 8C4.04037 8 3.58525 7.90947 3.16061 7.73358C2.73597 7.55769 2.35013 7.29988 2.02513 6.97487C1.70012 6.64987 1.44231 6.26403 1.26642 5.83939C1.09053 5.41475 1 4.95963 1 4.5C1 3.57174 1.36875 2.6815 2.02513 2.02513C2.6815 1.36875 3.57174 1 4.5 1C5.42826 1 6.3185 1.36875 6.97487 2.02513C7.63125 2.6815 8 3.57174 8 4.5ZM27 4.5C27 4.95963 26.9095 5.41475 26.7336 5.83939C26.5577 6.26403 26.2999 6.64987 25.9749 6.97487C25.6499 7.29988 25.264 7.55769 24.8394 7.73358C24.4148 7.90947 23.9596 8 23.5 8C23.0404 8 22.5852 7.90947 22.1606 7.73358C21.736 7.55769 21.3501 7.29988 21.0251 6.97487C20.7001 6.64987 20.4423 6.26403 20.2664 5.83939C20.0905 5.41475 20 4.95963 20 4.5C20 3.57174 20.3687 2.6815 21.0251 2.02513C21.6815 1.36875 22.5717 1 23.5 1C24.4283 1 25.3185 1.36875 25.9749 2.02513C26.6313 2.6815 27 3.57174 27 4.5ZM7.377 10C6.80774 10.7087 6.49825 11.591 6.5 12.5V20C6.5 21.235 6.798 22.4 7.327 23.427C6.56487 23.8277 5.71216 24.0249 4.85148 23.9993C3.99079 23.9737 3.15129 23.7263 2.41431 23.281C1.67732 22.8357 1.06782 22.2076 0.644838 21.4576C0.22186 20.7076 -0.000257712 19.8611 2.24393e-07 19V12.5C2.24393e-07 11.837 0.263392 11.2011 0.732233 10.7322C1.20107 10.2634 1.83696 10 2.5 10H7.377ZM20.673 23.427C21.217 22.3666 21.5005 21.1918 21.5 20V12.5C21.5 11.554 21.172 10.685 20.623 10H25.5C26.163 10 26.7989 10.2634 27.2678 10.7322C27.7366 11.2011 28 11.837 28 12.5V19C28.0003 19.8611 27.7781 20.7076 27.3552 21.4576C26.9322 22.2076 26.3227 22.8357 25.5857 23.281C24.8487 23.7263 24.0092 23.9737 23.1485 23.9993C22.2878 24.0249 21.4351 23.8277 20.673 23.427ZM10.5 10C9.83696 10 9.20107 10.2634 8.73223 10.7322C8.26339 11.2011 8 11.837 8 12.5V20C8 21.5913 8.63214 23.1174 9.75736 24.2426C10.8826 25.3679 12.4087 26 14 26C15.5913 26 17.1174 25.3679 18.2426 24.2426C19.3679 23.1174 20 21.5913 20 20V12.5C20 11.837 19.7366 11.2011 19.2678 10.7322C18.7989 10.2634 18.163 10 17.5 10H10.5Z" fill="#545454"/>
</svg>
