<svg width="126" height="123" viewBox="0 0 126 123" fill="none" xmlns="http://www.w3.org/2000/svg">
<path d="M110.25 44.25H70.875V35.5H110.25V44.25ZM126 0.5V67.9707C124.852 66.3757 123.642 64.8717 122.37 63.459C121.099 62.0462 119.684 60.7702 118.125 59.6309V9.25H7.875V96.75H63.4307C63.5537 98.2539 63.7588 99.735 64.0459 101.193C64.333 102.652 64.7021 104.087 65.1533 105.5H0V0.5H126ZM15.75 79.25C15.75 76.8802 16.0371 74.5788 16.6113 72.3457C17.1855 70.1126 18.0059 67.9935 19.0723 65.9883C20.1387 63.9831 21.4307 62.1602 22.9482 60.5195C24.4658 58.8789 26.168 57.4889 28.0547 56.3496C26.6602 54.7546 25.5732 52.9089 24.7939 50.8125C24.0146 48.7161 23.625 46.5286 23.625 44.25C23.625 41.8346 24.0352 39.5788 24.8555 37.4824C25.6758 35.3861 26.8037 33.5176 28.2393 31.877C29.6748 30.2363 31.3359 28.9831 33.2227 28.1172C35.1094 27.2513 37.1602 26.7956 39.375 26.75C41.5488 26.75 43.5791 27.2057 45.4658 28.1172C47.3525 29.0286 49.0342 30.2819 50.5107 31.877C51.9873 33.472 53.1152 35.3177 53.8945 37.4141C54.6738 39.5104 55.084 41.7891 55.125 44.25C55.125 46.5286 54.7354 48.7161 53.9561 50.8125C53.1768 52.9089 52.0898 54.7546 50.6953 56.3496C52.582 57.4889 54.2842 58.8789 55.8018 60.5195C57.3193 62.1602 58.6113 63.9603 59.6777 65.9199C60.7441 67.8796 61.5645 69.9987 62.1387 72.2773C62.7129 74.556 63 76.8802 63 79.25H55.125C55.125 76.8346 54.7148 74.5788 53.8945 72.4824C53.0742 70.3861 51.9463 68.5176 50.5107 66.877C49.0752 65.2363 47.4141 63.9831 45.5273 63.1172C43.6406 62.2513 41.5898 61.7956 39.375 61.75C37.2012 61.75 35.1709 62.2057 33.2842 63.1172C31.3975 64.0286 29.7158 65.2819 28.2393 66.877C26.7627 68.472 25.6348 70.3177 24.8555 72.4141C24.0762 74.5104 23.666 76.7891 23.625 79.25H15.75ZM39.375 35.5C38.2676 35.5 37.2422 35.7279 36.2988 36.1836C35.3555 36.6393 34.5352 37.2546 33.8379 38.0293C33.1406 38.804 32.5664 39.7383 32.1152 40.832C31.6641 41.9258 31.459 43.0651 31.5 44.25C31.5 45.4805 31.7051 46.6198 32.1152 47.668C32.5254 48.7161 33.0791 49.6276 33.7764 50.4023C34.4736 51.1771 35.3145 51.8151 36.2988 52.3164C37.2832 52.8177 38.3086 53.0456 39.375 53C40.4824 53 41.5078 52.7721 42.4512 52.3164C43.3945 51.8607 44.2148 51.2454 44.9121 50.4707C45.6094 49.696 46.1836 48.7617 46.6348 47.668C47.0859 46.5742 47.291 45.4349 47.25 44.25C47.25 43.0195 47.0449 41.8802 46.6348 40.832C46.2246 39.7839 45.6709 38.8724 44.9736 38.0977C44.2764 37.3229 43.4355 36.6849 42.4512 36.1836C41.4668 35.6823 40.4414 35.4544 39.375 35.5ZM125.385 84.7188L117.756 88.2051C118.002 89.5723 118.125 90.9622 118.125 92.375C118.125 93.7878 118.002 95.1777 117.756 96.5449L125.385 100.031L122.37 108.166L114.741 104.611C113.306 106.936 111.542 108.895 109.45 110.49L112.649 118.967L105.328 122.316L102.19 113.84C100.96 114.113 99.709 114.25 98.4375 114.25C97.166 114.25 95.915 114.113 94.6846 113.84L91.5469 122.316L84.2256 118.967L87.4248 110.49C85.333 108.895 83.5693 106.936 82.1338 104.611L74.5049 108.166L71.4902 100.031L79.1191 96.5449C78.873 95.1777 78.75 93.7878 78.75 92.375C78.75 90.9622 78.873 89.5723 79.1191 88.2051L71.4902 84.7188L74.5049 76.584L82.1338 80.1387C83.5693 77.8145 85.333 75.8548 87.4248 74.2598L84.2256 65.7832L91.5469 62.4336L94.6846 70.9102C95.915 70.6367 97.166 70.5 98.4375 70.5C99.709 70.5 100.96 70.6367 102.19 70.9102L105.328 62.4336L112.649 65.7832L109.45 74.2598C111.542 75.8548 113.306 77.8145 114.741 80.1387L122.37 76.584L125.385 84.7188ZM98.4375 105.5C100.078 105.5 101.616 105.158 103.052 104.475C104.487 103.791 105.738 102.857 106.805 101.672C107.871 100.487 108.712 99.097 109.327 97.502C109.942 95.9069 110.25 94.1979 110.25 92.375C110.25 90.5521 109.942 88.8431 109.327 87.248C108.712 85.653 107.871 84.263 106.805 83.0781C105.738 81.8932 104.487 80.959 103.052 80.2754C101.616 79.5918 100.078 79.25 98.4375 79.25C96.7969 79.25 95.2588 79.5918 93.8232 80.2754C92.3877 80.959 91.1367 81.8932 90.0703 83.0781C89.0039 84.263 88.1631 85.653 87.5479 87.248C86.9326 88.8431 86.625 90.5521 86.625 92.375C86.625 94.1979 86.9326 95.9069 87.5479 97.502C88.1631 99.097 89.0039 100.487 90.0703 101.672C91.1367 102.857 92.3877 103.791 93.8232 104.475C95.2588 105.158 96.7969 105.5 98.4375 105.5Z" fill="#545454"/>
</svg>
